# xmcd
#
# Track frame offsets: 
#        150
#        16398
#        27327
#
# Disc length: 541 seconds
#
# Revision: 0
# Processed by: cddbd v1.5.2PL0 Copyright (c) Steve Scherf et al.
# Submitted via: ExactAudioCopy v0.95a5
#
DISCID=1a021b03
DTITLE=Baskery - One Horse Down
DYEAR=2007
DGENRE=
TTITLE0=One Horse Down
TTITLE1=Oscar Junior Restaurant Bar
TTITLE2=Here To Pay My Dues
EXTD=
EXTT0=
EXTT1=
EXTT2=
PLAYORDER=
